# Blender 3.1.0
# www.blender.org
mtllib tvSetup.mtl
o televisionModern
v 0.099125 2.113053 0.864607
v 0.099125 2.113053 0.727815
v -0.154551 2.113053 0.727815
v -0.154551 2.113053 0.864607
v 1.221152 1.503028 0.502879
v 1.221152 2.908001 0.502879
v 1.221152 2.908001 0.727816
v 1.221152 1.503027 0.727815
v 0.616233 1.249352 0.229296
v -0.671659 1.249352 0.229296
v -0.613119 1.327406 0.346545
v 0.557692 1.327406 0.346545
v 0.616233 1.249352 1.167295
v 0.557692 1.327406 1.128211
v 1.190641 1.533538 0.541962
v 1.190641 1.533538 0.502879
v -1.246068 1.533538 0.502879
v -1.246068 1.533538 0.541962
v -0.671659 1.249352 1.167295
v -1.276579 1.503028 0.502879
v -1.276579 2.908001 0.502879
v -1.246068 2.877491 0.502879
v 1.190641 2.877491 0.502879
v 0.099125 1.990865 0.727815
v -1.276579 1.503027 0.727815
v -0.154551 1.990865 0.727815
v -1.276579 2.908001 0.727816
v 1.190641 2.877491 0.541962
v -0.154551 1.327406 1.001398
v 0.099125 1.327406 1.001398
v 0.099125 2.044756 1.001398
v -0.154551 2.044756 1.001398
v 0.099125 1.327406 0.805982
v -0.154551 1.327406 0.805982
v -0.613119 1.327406 1.128211
v 0.099125 1.990865 0.805982
v -0.154551 1.990865 0.805982
v -1.246068 2.877491 0.541962
v 1.915261 0.373416 0.661771
v 1.915261 0.186708 0.661771
v -1.939734 0.186708 0.661771
v -1.939734 0.373416 0.661771
v -1.939734 0.373416 0.834231
v -1.939734 0.186708 0.834230
v 1.915261 0.186708 0.834230
v 1.915261 0.373416 0.834231
v 1.915261 1.071013 1.323542
v 1.915261 1.071013 1.496002
v -1.939734 1.071013 1.496002
v -1.939734 1.071013 1.323542
v -1.939734 1.071013 0.000000
v 1.915261 1.071013 0.000000
v 1.915261 1.071013 0.172460
v 2.166417 1.071013 1.323542
v 2.166417 1.071013 0.172460
v -1.939734 1.071013 0.172460
v -2.190889 1.071013 1.323542
v -2.190889 1.071013 0.172460
v 2.040839 0.186708 0.172460
v 2.040839 0.186708 1.323542
v 1.915261 0.186708 1.323542
v 1.915261 0.186708 0.172460
v -2.065312 0.186708 1.323542
v -1.939734 0.186708 1.323542
v -2.065312 0.186708 0.172460
v -1.939734 0.186708 0.172460
v 2.040839 0.373416 1.323542
v 2.040839 0.373416 0.172460
v 1.915261 0.373416 0.172460
v 1.915261 0.373416 1.323542
v -2.065312 0.373416 1.323542
v -1.939734 0.373416 1.323542
v -2.065312 0.373416 0.172460
v -1.939734 0.373416 0.172460
v -1.939734 0.000000 0.000000
v -1.939734 0.000000 0.172460
v -2.190889 -0.000000 1.323542
v -2.190889 -0.000000 1.496001
v -2.190889 1.257721 1.496002
v -2.190889 1.257721 0.000000
v -2.190889 0.000000 0.172460
v -2.190889 0.000000 0.000000
v -1.939734 -0.000000 1.496001
v -1.939734 -0.000000 1.323542
v 2.166417 0.000000 0.000000
v 2.166417 0.000000 0.172460
v 1.915261 0.000000 0.172460
v 1.915261 0.000000 0.000000
v 2.166417 -0.000000 1.323542
v 2.166417 -0.000000 1.496001
v 1.915261 -0.000000 1.496001
v 1.915261 -0.000000 1.323542
v 2.166417 1.257721 0.000000
v 2.166417 1.257721 1.496002
vn -0.0000 3.6474 -0.0000
vn 3.6474 -0.0000 -0.0000
vn -0.0000 2.1884 -5.8442
vn -0.0000 -0.0000 -7.3053
vn -0.0000 -0.0000 7.3053
vn -3.6474 -0.0000 -0.0000
vn -0.0000 -3.6474 -0.0000
vn 2.9179 2.1884 -0.0000
vn -2.9179 2.1884 -0.0000
vn -0.0000 0.8846 7.0872
vn -0.0000 2.5791 5.1656
vn -0.0000 -0.8203 -7.1181
vn -0.0002 -3.6474 -0.0000
vn 3.6474 0.0002 0.0001
vn 3.6418 -0.0002 -0.4035
vn -3.6474 -0.0002 0.0001
vn -3.6474 -0.0000 -0.0003
vn -3.6458 -0.0000 0.2153
vn -3.6418 0.0002 -0.4035
vn -3.6474 -0.0000 0.0001
vt -1.369094 0.896296
vt -0.896296 9.322835
vt 1.369094 5.958463
vt -1.369094 0.159091
vt 1.369094 9.322835
vt -0.159091 9.322835
vt 1.369094 0.159091
vt -1.369094 9.322835
vt 0.159091 9.322835
vt 1.369094 0.896296
vt 0.896296 9.322835
vt -1.369094 5.958463
vt 1.053150 2.738189
vt -13.480320 2.738189
vt 13.480320 -1.053150
vt 1.053150 17.903540
vt -13.480320 17.903540
vt -13.480320 -1.053150
vt -0.159091 17.903540
vt 13.480320 17.903540
vt -13.480320 0.159091
vt -0.159091 2.738189
vt 13.480320 0.159091
vt 13.480320 2.738189
vt -6.950788 -1.516535
vt 2.527559 -4.170473
vt 6.950788 -2.527559
vt 6.950788 -1.516535
vt -6.950788 -2.527559
vt -2.527559 -4.170473
vt 6.318898 -0.463386
vt 6.318898 -1.895669
vt -1.895669 -3.117323
vt -6.318898 -0.463386
vt -6.318898 -1.895669
vt 1.895669 -3.117323
vt -2.527559 -4.170473
vt 6.950788 2.527559
vt 6.950788 -0.613023
vt -2.316929 -3.117323
vt -6.318898 2.316929
vt 6.318898 0.255426
vt -13.150980 3.067521
vt -13.150980 -0.842520
vt -0.842520 3.067521
vt -13.150980 -1.053150
vt -13.150980 3.067521
vt -1.053150 3.067521
vt 1.053150 3.067521
vt 13.150980 -1.053150
vt 13.150980 3.067521
vt 13.150980 -0.842520
vt 0.842520 3.067521
vt 13.150980 3.067521
vt -6.950788 2.527559
vt 2.527559 -4.170473
vt -6.950788 -0.613023
vt -1.053150 2.738189
vt 13.480320 2.738189
vt -13.480320 -1.053150
vt -1.053150 17.903540
vt 13.480320 17.903540
vt 13.480320 -1.053150
vt 13.150980 17.574209
vt -13.150980 -1.053150
vt 1.053150 17.574209
vt 13.150980 -1.053150
vt -13.150980 17.574209
vt -1.053150 17.574209
vt 1.369094 0.159091
vt 1.369094 8.003937
vt -0.159091 8.003937
vt 0.159091 2.738189
vt -13.480320 2.738189
vt -13.480320 0.159091
vt -1.369094 0.159091
vt -1.369094 8.003937
vt 0.159091 8.003937
vt -13.480320 17.903540
vt 0.159091 17.903540
vt 13.480320 0.159091
vt 13.150980 -0.842520
vt -13.150980 17.574209
vt -0.842520 17.574209
vt -1.369094 0.842520
vt 1.369094 1.633501
vt 1.633501 0.842520
vt 1.369094 0.842520
vt -1.369094 1.633501
vt -1.633501 0.842520
vt 1.369094 8.585629
vt -1.633501 8.585629
vt 1.369094 4.915897
vt -1.369094 8.585629
vt 1.633501 8.585629
vt -1.369094 4.915897
vt -1.369094 0.580351
vt -0.580351 0.842520
vt -1.369094 0.842520
vt 1.369094 0.842520
vt 0.580351 0.842520
vt 1.369094 0.580351
vt 6.318898 2.316929
vt 2.316929 -3.117323
vt -6.318898 0.255426
vt 1.369094 0.580351
vt -0.580351 8.003937
vt -1.369094 8.003937
vt -1.369094 0.580351
vt 1.369094 8.003937
vt 0.580351 8.003937
vt -13.150980 -0.842520
vt 0.842520 17.574209
vt 13.150980 17.574209
vt 1.909586 3.819173
vt 1.909586 7.791339
vt 7.791339 3.819173
vt 1.909586 1.909586
vt -1.909586 7.791339
vt 7.791339 1.909586
vt 31.219860 1.909586
vt -31.219860 7.791339
vt -7.791339 1.909586
vt 31.219860 3.819173
vt 31.219860 7.791339
vt -7.791339 3.819173
vt -9.821785 3.819173
vt -31.219860 3.819173
vt 31.219860 9.821785
vt -31.219860 1.909586
vt -31.219860 9.821785
vt -9.821785 1.909586
vt -1.909586 1.909586
vt -1.909586 9.821785
vt 9.821785 1.909586
vt 9.821785 3.819173
vt -1.909586 3.819173
vt 1.909586 9.821785
vt -1.909586 15.582680
vt 1.909586 10.953960
vt 15.582680 10.953960
vt -1.909586 17.613119
vt 17.613119 10.953960
vt -1.909586 10.953960
vt -31.219860 10.953960
vt -31.219860 17.613119
vt -17.613119 10.953960
vt -15.582680 10.953960
vt -31.219860 15.582680
vt 31.219860 10.953960
vt -31.219860 0.000000
vt 0.000000 10.953960
vt 31.219860 10.953960
vt -1.909586 0.000000
vt 0.000000 10.953960
vt 1.909586 10.953960
vt -1.909586 10.953960
vt -1.909586 2.030446
vt 2.030446 10.953960
vt -15.582680 10.953960
vt -0.000000 15.582680
vt -0.000000 10.953960
vt -2.030446 10.953960
vt -0.000000 10.953960
vt -0.000000 2.030446
vt -31.219860 2.030446
vt -2.030446 10.953960
vt -31.219860 10.953960
vt 15.582680 10.953960
vt -33.129452 15.582680
vt 33.129452 10.953960
vt 2.030446 10.953960
vt -33.129452 2.030446
vt -33.129452 10.953960
vt -2.030446 1.909586
vt -0.954793 2.030446
vt -0.954793 1.909586
vt -0.954793 15.582680
vt -15.582680 1.909586
vt 0.954793 1.909586
vt -1.909586 15.582680
vt 1.909586 1.909586
vt 15.582680 1.909586
vt -1.909586 2.030446
vt -1.909586 1.909586
vt 2.030446 1.909586
vt 15.582680 1.909586
vt -32.174660 15.582680
vt 32.174660 1.909586
vt -31.219860 15.582680
vt -15.582680 1.909586
vt 31.219860 1.909586
vt 2.030446 1.909586
vt -32.174660 2.030446
vt -32.174660 1.909586
vt -31.219860 2.030446
vt -2.030446 1.909586
vt -31.219860 1.909586
vt -15.582680 3.819173
vt 0.954793 15.582680
vt 0.954793 3.819173
vt 0.954793 2.030446
vt -2.030446 3.819173
vt -0.954793 3.819173
vt -1.909586 3.819173
vt 1.909586 2.030446
vt 2.030446 3.819173
vt 1.909586 15.582680
vt 1.909586 3.819173
vt 15.582680 3.819173
vt 15.582680 3.819173
vt 32.174660 15.582680
vt 32.174660 3.819173
vt 31.219860 15.582680
vt -15.582680 3.819173
vt 31.219860 3.819173
vt 2.030446 3.819173
vt -32.174660 3.819173
vt 32.174660 2.030446
vt -2.030446 3.819173
vt 31.219860 2.030446
vt -31.219860 3.819173
vt 0.000000 0.000000
vt -31.219860 0.000000
vt 31.219860 0.000000
vt -31.219860 0.000000
vt -2.030446 0.000000
vt -31.219860 2.030446
vt 15.582680 0.000000
vt -33.129452 15.582680
vt 33.129452 0.000000
vt 17.613119 0.000000
vt -33.129452 0.000000
vt -33.129452 17.613119
vt 17.613119 12.863540
vt -33.129452 12.863540
vt 33.129452 17.613119
vt -0.000000 12.863540
vt 33.129452 0.000000
vt 33.129452 12.863540
vt 2.030446 0.000000
vt -33.129452 0.000000
vt -33.129452 2.030446
vt -0.000000 0.000000
vt -33.129452 0.000000
vt 33.129452 0.000000
vt -31.219860 0.000000
vt -17.613119 0.000000
vt -31.219860 17.613119
vt -15.582680 0.000000
vt -31.219860 15.582680
vt 31.219860 0.000000
vt 0.000000 0.000000
vt -0.000000 2.030446
vt -2.030446 0.000000
vt -0.000000 0.000000
vt -1.909586 2.030446
vt -1.909586 -0.000000
vt 2.030446 0.000000
vt -1.909586 0.000000
vt 0.000000 0.000000
vt 1.909586 0.000000
vt -15.582680 0.000000
vt -0.000000 15.582680
vt -0.000000 0.000000
vt -17.613119 0.000000
vt -0.000000 17.613119
vt -0.000000 0.000000
vt 17.613119 0.000000
vt -1.909586 17.613119
vt -1.909586 0.000000
vt -1.909586 15.582680
vt 1.909586 0.000000
vt 15.582680 0.000000
vt 0.000000 0.000000
vt 0.000000 12.863540
vt -17.613119 12.863540
vt -0.000000 17.613119
vt -0.000000 12.863540
s 1
usemtl metalDark
f 1/1/1 2/4/1 3/7/1
f 7/19/2 8/22/2 5/13/2
f 11/31/3 12/34/3 9/25/3
f 17/50/1 18/52/1 15/44/1
f 20/59/4 21/62/4 17/51/4
f 21/62/4 22/64/4 17/51/4
f 21/62/4 23/68/4 22/64/4
f 5/14/4 17/51/4 16/47/4
f 16/47/4 23/68/4 6/17/4
f 24/71/5 25/74/5 8/24/5
f 7/20/5 2/5/5 24/71/5
f 26/77/5 27/79/5 25/74/5
f 26/77/5 3/8/5 27/79/5
f 3/8/5 7/20/5 27/79/5
f 21/61/6 20/58/6 25/73/6
f 25/73/6 27/80/6 21/61/6
f 29/85/5 30/88/5 31/91/5
f 31/91/5 32/94/5 29/85/5
f 33/97/1 14/41/1 12/35/1
f 12/35/1 11/32/1 33/97/1
f 11/32/1 34/102/1 33/97/1
f 30/89/1 29/86/1 35/103/1
f 24/70/7 36/106/7 37/109/7
f 37/109/7 26/76/7 24/70/7
f 5/15/7 8/23/7 25/75/7
f 1/2/2 33/98/2 36/107/2
f 1/2/2 31/92/2 30/90/2
f 23/67/7 28/82/7 38/112/7
f 38/112/7 22/65/7 23/67/7
f 17/49/2 22/66/2 38/113/2
f 38/113/2 18/53/2 17/49/2
f 33/99/4 34/100/4 37/110/4
f 37/111/6 34/101/6 29/87/6
f 37/111/6 4/11/6 3/9/6
usemtl metal
f 15/43/4 18/54/4 38/114/4
f 38/114/4 28/83/4 15/43/4
usemtl metalDark
f 3/7/1 4/10/1 1/1/1
f 5/13/2 6/16/2 7/19/2
f 9/25/3 10/28/3 11/31/3
f 13/37/8 9/26/8 12/36/8
f 12/36/8 14/40/8 13/37/8
f 15/44/1 16/46/1 17/50/1
f 9/27/7 13/38/7 19/55/7
f 19/55/7 10/29/7 9/27/7
f 17/51/4 5/14/4 20/59/4
f 16/47/4 6/17/4 5/14/4
f 23/68/4 21/62/4 6/17/4
f 8/24/5 7/20/5 24/71/5
f 7/20/5 3/8/5 2/5/5
f 25/74/5 24/71/5 26/77/5
f 23/69/6 16/48/6 15/45/6
f 15/45/6 28/84/6 23/69/6
f 11/32/1 29/86/1 34/102/1
f 14/41/1 33/97/1 30/89/1
f 30/89/1 35/103/1 14/41/1
f 29/86/1 11/32/1 35/103/1
f 11/33/9 10/30/9 19/56/9
f 19/56/9 35/104/9 11/33/9
f 25/75/7 20/60/7 5/15/7
f 24/72/2 2/6/2 1/2/2
f 1/2/2 36/107/2 24/72/2
f 1/2/2 30/90/2 33/98/2
f 19/57/10 13/39/10 14/42/10
f 14/42/10 35/105/10 19/57/10
f 7/21/1 6/18/1 21/63/1
f 21/63/1 27/81/1 7/21/1
f 37/110/4 36/108/4 33/99/4
f 29/87/6 4/11/6 37/111/6
f 29/87/6 32/95/6 4/11/6
f 3/9/6 26/78/6 37/111/6
f 32/96/11 31/93/11 1/3/11
f 1/3/11 4/12/11 32/96/11
usemtl wood
f 39/115/4 40/118/4 41/121/4
f 41/121/4 42/124/4 39/115/4
f 47/139/7 48/142/7 49/146/7
f 47/139/7 51/151/7 52/154/7
f 47/139/7 52/154/7 53/158/1
f 54/161/7 47/139/7 53/158/1
f 50/149/7 56/166/1 51/151/7
f 56/166/1 50/149/7 57/170/7
f 59/176/7 60/178/7 61/181/7
f 40/119/7 62/184/7 59/176/7
f 41/122/7 40/119/7 45/134/7
f 45/134/7 44/131/7 41/122/7
f 67/200/1 68/202/1 69/206/1
f 39/116/12 46/138/13 70/208/1
f 43/129/1 42/125/1 71/212/1
f 56/167/2 74/220/14 76/227/2
f 74/220/14 66/197/15 76/227/2
f 74/220/14 42/126/2 66/197/15
f 57/169/6 77/229/6 78/232/6
f 57/169/6 78/232/6 79/235/6
f 58/172/6 57/169/6 79/235/6
f 58/172/6 79/235/6 80/238/6
f 81/241/6 58/172/6 80/238/6
f 80/238/6 82/244/6 81/241/6
f 72/215/2 50/148/2 49/147/2
f 49/147/2 64/191/2 72/215/2
f 83/248/2 84/250/2 64/191/2
f 44/132/2 43/127/2 72/215/2
f 71/211/6 73/217/6 65/193/6
f 65/193/6 63/187/6 71/211/6
f 85/253/7 86/254/7 87/257/7
f 87/257/7 88/260/7 85/253/7
f 59/175/2 68/203/2 67/199/2
f 67/199/2 60/179/2 59/175/2
f 91/270/7 92/272/7 89/264/7
f 55/163/2 93/276/2 94/277/2
f 94/277/2 54/160/2 55/163/2
f 94/277/2 89/263/2 54/160/2
f 94/277/2 90/266/2 89/263/2
f 93/276/2 55/163/2 86/255/2
f 86/255/2 85/253/2 93/276/2
f 62/185/5 87/258/5 86/256/5
f 86/256/5 55/164/5 59/177/5
f 55/164/5 68/204/5 59/177/5
f 55/164/5 53/157/5 68/204/5
f 69/205/5 68/204/5 53/157/5
f 81/242/5 76/226/5 66/198/5
f 58/174/5 81/242/5 65/195/5
f 65/195/5 73/218/5 58/174/5
f 73/218/5 74/222/5 58/174/5
f 61/182/4 60/180/4 89/265/4
f 60/180/4 67/201/4 54/162/4
f 87/259/6 62/186/16 53/159/17
f 87/259/6 53/159/17 52/155/6
f 70/210/18 46/136/6 45/135/6
f 92/274/6 91/269/6 47/141/17
f 91/269/6 48/143/6 47/141/17
f 80/240/4 51/153/4 75/225/4
f 51/153/4 80/240/4 93/276/4
f 94/279/5 79/236/5 48/144/5
f 49/145/5 48/144/5 79/236/5
f 49/145/5 79/236/5 78/233/5
f 78/233/5 83/247/5 49/145/5
f 43/128/5 44/130/5 45/133/5
f 45/133/5 46/137/5 43/128/5
f 47/139/7 49/146/7 50/149/7
f 47/139/7 50/149/7 51/151/7
f 53/158/1 55/165/7 54/161/7
f 57/170/7 58/173/7 56/166/1
f 61/181/7 45/134/7 59/176/7
f 45/134/7 40/119/7 59/176/7
f 63/188/7 41/122/7 44/131/7
f 44/131/7 64/190/7 63/188/7
f 63/188/7 65/194/7 41/122/7
f 66/196/7 41/122/7 65/194/7
f 69/206/1 70/208/1 67/200/1
f 69/206/1 39/116/12 70/208/1
f 39/116/12 42/125/1 46/138/13
f 42/125/1 43/129/1 46/138/13
f 71/212/1 72/214/1 43/129/1
f 42/125/1 73/219/1 71/212/1
f 42/125/1 74/221/1 73/219/1
f 75/223/2 51/152/2 56/167/2
f 56/167/2 76/227/2 75/223/2
f 42/126/2 41/123/2 66/197/15
f 64/191/2 49/147/2 83/248/2
f 72/215/2 64/191/2 44/132/2
f 84/251/7 83/249/7 78/234/7
f 78/234/7 77/230/7 84/251/7
f 63/189/4 84/252/4 77/231/4
f 77/231/4 57/171/4 63/189/4
f 57/171/4 71/213/4 63/189/4
f 57/171/4 72/216/4 71/213/4
f 57/171/4 50/150/4 72/216/4
f 84/252/4 63/189/4 64/192/4
f 89/264/7 90/267/7 91/270/7
f 86/256/5 59/177/5 62/185/5
f 66/198/5 65/195/5 81/242/5
f 74/222/5 56/168/5 58/174/5
f 89/265/4 92/273/4 61/182/4
f 54/162/4 89/265/4 60/180/4
f 67/201/4 70/209/4 54/162/4
f 70/209/4 47/140/4 54/162/4
f 69/207/19 62/186/16 40/120/6
f 40/120/6 39/117/6 69/207/19
f 62/186/16 69/207/19 53/159/17
f 52/155/6 88/261/6 87/259/6
f 75/224/7 76/228/7 81/243/7
f 81/243/7 82/245/7 75/224/7
f 45/135/6 61/183/20 70/210/18
f 61/183/20 47/141/17 70/210/18
f 61/183/20 92/274/6 47/141/17
f 79/237/1 94/278/1 93/275/1
f 93/275/1 80/239/1 79/237/1
f 75/225/4 82/246/4 80/240/4
f 52/156/4 51/153/4 93/276/4
f 52/156/4 93/276/4 85/253/4
f 85/253/4 88/262/4 52/156/4
f 48/144/5 91/271/5 90/268/5
f 90/268/5 94/279/5 48/144/5
